<svg width="52" height="52" viewBox="0 0 52 52" fill="none" xmlns="http://www.w3.org/2000/svg">
<g clip-path="url(#clip0_468_1446)">
<rect width="52" height="52" rx="26" fill="white"/>
<circle cx="26" cy="26" r="26" fill="#D9D9D9"/>
<path fill-rule="evenodd" clip-rule="evenodd" d="M20.2395 19C19.7095 19 19.2777 19.4254 19.2699 19.9553C19.2618 20.4964 19.6983 20.9394 20.2395 20.9394L29.689 20.9394L19.2841 31.3443C18.9053 31.7231 18.9053 32.3372 19.2841 32.7159C19.6628 33.0947 20.2769 33.0947 20.6557 32.7159L31.0606 22.311V31.7462C31.0606 32.2818 31.4947 32.7159 32.0303 32.7159C32.5658 32.7159 33 32.2818 33 31.7462V20.2469C33 19.5583 32.4417 19 31.7531 19H20.2395Z" fill="#0F1629"/>
</g>
<defs>
<clipPath id="clip0_468_1446">
<rect width="52" height="52" rx="26" fill="white"/>
</clipPath>
</defs>
</svg>
