<svg width="52" height="52" viewBox="0 0 52 52" fill="none" xmlns="http://www.w3.org/2000/svg">
  <path d="M52 26C52 11.6406 40.3594 0 26 0C11.6406 0 0 11.6406 0 26C0 40.3594 11.6406 52 26 52C40.3594 52 52 40.3594 52 26Z" fill="white"/>
  <path d="M26 52C40.3594 52 52 40.3594 52 26C52 11.6406 40.3594 0 26 0C11.6406 0 0 11.6406 0 26C0 40.3594 11.6406 52 26 52Z" fill="#D9D9D9"/>
  <path d="M20 32L32 20M32 20H20.5M32 20V31.5" stroke="#2C2E37" strokeWidth="1.5" stroke-linecap="round" stroke-linejoin="round"/>
  </svg>