<svg width="16" height="16" viewBox="0 0 16 16" fill="none" xmlns="http://www.w3.org/2000/svg">
<rect width="16" height="16" rx="4" fill="#FF3257"/>
<path d="M10.2973 4.29526C10.6906 3.90158 11.3119 3.90158 11.7052 4.29526C12.0983 4.68875 12.0983 5.31003 11.7052 5.70352L9.4074 8.00349L11.7052 10.3035C12.0983 10.697 12.0983 11.3182 11.7052 11.7117C11.5055 11.9116 11.2566 12 11.0012 12C10.7458 12 10.497 11.9116 10.2973 11.7117L8 9.41225L5.70272 11.7117C5.50302 11.9116 5.25417 12 4.99878 12C4.74339 12 4.49453 11.9116 4.29483 11.7117C3.90172 11.3182 3.90172 10.697 4.29483 10.3035L6.5926 8.00349L4.29483 5.70352C3.90172 5.31003 3.90172 4.68875 4.29483 4.29526C4.68813 3.90158 5.30942 3.90158 5.70272 4.29526L8 6.59474L10.2973 4.29526Z" fill="white"/>
</svg>
