<svg width="217" height="22" viewBox="0 0 217 22" fill="none" xmlns="http://www.w3.org/2000/svg">
<path d="M86.3248 18.8311L80.8125 1.92188H84.5771L88.3418 13.6391L92.1062 1.92188H95.8709L90.2249 18.8296L86.3248 18.8311Z" fill="#FA6633"/>
<path d="M99.5008 15.9031C100.138 16.4373 100.951 16.7209 101.786 16.699C102.413 16.7296 103.032 16.5409 103.534 16.1664C103.915 15.8774 104.234 15.5156 104.473 15.1026H107.43C107.038 16.3846 106.236 17.5058 105.145 18.2971C104.049 18.9442 102.789 19.2663 101.515 19.2262C100.59 19.2434 99.672 19.0619 98.8256 18.692C98.0333 18.4591 97.3303 17.9951 96.8086 17.3603C96.2525 16.7986 95.8381 16.1146 95.5992 15.3643C95.3241 14.5035 95.1879 13.6039 95.1956 12.701C95.198 11.8425 95.3341 10.9897 95.5992 10.1723C95.9169 9.38824 96.3719 8.66596 96.9433 8.03861C97.5031 7.44686 98.1932 6.99126 98.9601 6.70694C99.7756 6.39076 100.639 6.21149 101.514 6.17578C102.491 6.20545 103.451 6.4322 104.337 6.84162C105.079 7.22501 105.722 7.77024 106.219 8.4366C106.79 9.12512 107.161 9.95318 107.295 10.8336C107.517 11.7496 107.608 12.6922 107.564 13.6332H98.6902C98.6481 14.0473 98.6989 14.465 98.839 14.8574C98.9791 15.2499 99.2052 15.6072 99.5008 15.9031ZM103.265 9.50951C102.726 9.0939 102.066 8.85988 101.383 8.84216C100.924 8.8665 100.471 8.95607 100.038 9.1085C99.6918 9.21726 99.4022 9.4565 99.2317 9.77433C99.0971 10.0409 98.8287 10.3084 98.8287 10.5718C98.7187 10.8238 98.6727 11.0987 98.6942 11.3723H104.207C104.087 10.6728 103.759 10.0244 103.265 9.51102L103.265 9.50951Z" fill="#FA6633"/>
<path d="M112.811 1.92195V8.1778H112.946C113.34 7.52127 113.895 6.97356 114.559 6.58433C115.191 6.28246 115.876 6.10054 116.576 6.04863C117.355 6.05152 118.128 6.18696 118.861 6.44965C119.421 6.63954 119.896 7.01615 120.206 7.51499C120.487 8.02268 120.712 8.55962 120.879 9.11452C121.043 9.81307 121.133 10.5267 121.147 11.2437V18.698H117.783V11.7748C117.879 10.981 117.689 10.1793 117.246 9.51099C117.036 9.25424 116.769 9.04974 116.466 8.91174C116.162 8.77374 115.831 8.70568 115.498 8.71501C115.121 8.6737 114.741 8.72607 114.389 8.86483C114.037 9.00359 113.725 9.22475 113.481 9.51099C112.993 10.3127 112.758 11.2411 112.808 12.1759V18.5664H109.312V1.66016H112.943L112.811 1.92195Z" fill="#FA6633"/>
<path d="M123.699 4.84969V2.05469H127.063V4.84969H123.699ZM127.063 6.58239V18.6976H123.699V6.58239H127.063Z" fill="#FA6633"/>
<path d="M135.531 8.84319C135.051 8.83204 134.58 8.97284 134.187 9.24572C133.81 9.48536 133.49 9.80336 133.248 10.1764C132.989 10.5846 132.807 11.0356 132.71 11.5081C132.599 11.9871 132.554 12.4787 132.576 12.9699C132.554 13.4185 132.599 13.8676 132.71 14.3031C132.832 14.7255 133.013 15.1288 133.248 15.5016C133.488 15.8757 133.809 16.194 134.187 16.4322C134.58 16.7045 135.051 16.8452 135.531 16.8348C136.215 16.8182 136.874 16.5846 137.414 16.1689C137.818 15.6137 138.093 14.9771 138.22 14.3046H141.585C141.434 15.7325 140.765 17.0573 139.702 18.0333C138.572 18.8641 137.211 19.3306 135.804 19.3665C134.922 19.3837 134.049 19.2007 133.249 18.8323C132.458 18.5993 131.755 18.1365 131.233 17.5036C130.679 16.9131 130.225 16.2381 129.888 15.5046C129.613 14.6885 129.476 13.8332 129.485 12.9729C129.487 12.0708 129.623 11.1727 129.888 10.3095C130.157 9.53254 130.567 8.81057 131.098 8.17886C131.65 7.54696 132.339 7.04732 133.114 6.71704C133.957 6.33593 134.877 6.15286 135.803 6.18286C136.527 6.20615 137.247 6.2962 137.954 6.4492C138.641 6.62362 139.283 6.93993 139.837 7.37834C140.353 7.80136 140.805 8.29435 141.181 8.84319C141.563 9.48792 141.749 10.2274 141.719 10.9739H138.355C138.235 10.3354 137.879 9.76476 137.357 9.37132C136.836 8.97787 136.185 8.78968 135.531 8.8447V8.84319Z" fill="#FA6633"/>
<path d="M146.825 1.92188V18.8296H143.461V1.92188H146.825Z" fill="#FA6633"/>
<path d="M153.141 15.9031C153.779 16.4374 154.592 16.7209 155.427 16.699C156.054 16.7296 156.673 16.5409 157.174 16.1664C157.556 15.8774 157.875 15.5156 158.113 15.1026H161.07C160.679 16.3847 159.877 17.506 158.785 18.2971C157.69 18.9442 156.43 19.2663 155.155 19.2262C154.23 19.2433 153.313 19.0618 152.466 18.692C151.674 18.459 150.971 17.9951 150.449 17.3603C149.893 16.7985 149.479 16.1146 149.24 15.3643C148.965 14.5035 148.829 13.6039 148.836 12.701C148.839 11.8425 148.975 10.9897 149.24 10.1723C149.558 9.38815 150.013 8.66586 150.585 8.03861C151.145 7.44686 151.835 6.99126 152.602 6.70694C153.417 6.39076 154.281 6.21149 155.156 6.17578C156.133 6.20545 157.094 6.4322 157.979 6.84162C158.721 7.22503 159.365 7.77026 159.862 8.4366C160.432 9.12512 160.804 9.95318 160.938 10.8336C161.16 11.7495 161.251 12.6922 161.207 13.6332H152.333C152.291 14.0472 152.341 14.4649 152.481 14.8574C152.621 15.2499 152.846 15.607 153.141 15.9031ZM156.906 9.50951C156.367 9.0939 155.707 8.85988 155.024 8.84216C154.565 8.86654 154.112 8.95611 153.68 9.1085C153.333 9.21704 153.043 9.45634 152.873 9.77433C152.739 10.0409 152.469 10.3084 152.469 10.5718C152.36 10.8239 152.313 11.0987 152.335 11.3723H157.847C157.672 10.6934 157.351 10.0591 156.908 9.51254L156.906 9.50951Z" fill="#FA6633"/>
<path d="M35.6403 1.92188L42.766 13.1049V1.92188H46.1299V18.8296H42.3653L35.3744 7.64657V18.8296H31.8789V1.92188H35.6403Z" fill="white"/>
<path d="M52.7149 15.907C53.352 16.4413 54.1654 16.7248 55 16.703C55.6276 16.7335 56.2461 16.5448 56.7479 16.1703C57.1294 15.8813 57.4485 15.5195 57.6867 15.1065H60.6447C60.253 16.3886 59.451 17.5098 58.3596 18.301C57.2642 18.9482 56.0043 19.2703 54.7294 19.2301C53.8044 19.2473 52.8868 19.0658 52.0405 18.6959C51.2482 18.4629 50.5455 17.9989 50.0237 17.3643C49.4675 16.8025 49.053 16.1186 48.8141 15.3683C48.5388 14.5074 48.4027 13.6078 48.4105 12.7049C48.4128 11.8464 48.5488 10.9936 48.8141 10.1762C49.1318 9.39198 49.5871 8.66966 50.1589 8.04252C50.7186 7.45064 51.409 6.99502 52.1759 6.71084C52.9917 6.39467 53.8548 6.2154 54.7301 6.17969C55.7072 6.20949 56.6679 6.43623 57.5537 6.84553C58.295 7.22901 58.9385 7.77424 59.4353 8.44051C60.0054 9.12899 60.3771 9.95706 60.511 10.8375C60.7335 11.7534 60.8241 12.6961 60.7801 13.6371H51.9068C52.0326 14.4366 52.3065 15.2061 52.7149 15.907ZM56.614 9.51342C56.0743 9.09814 55.4148 8.86416 54.7317 8.84607C54.2728 8.87037 53.8198 8.95995 53.3868 9.1124C53.0404 9.22117 52.7508 9.46041 52.5802 9.77824C52.4457 10.0448 52.1774 10.3123 52.1774 10.5757C52.0677 10.8278 52.0216 11.1026 52.0429 11.3763H57.5552C57.3791 10.6975 57.0591 10.0633 56.6165 9.51644L56.614 9.51342Z" fill="white"/>
<path d="M73.4206 18.8301L71.1353 10.7068L68.9838 18.8301H65.6197L61.5859 6.71484H65.2161L67.5013 14.9697L69.5175 6.71484H72.8814L75.0328 14.9697L77.3182 6.71484H80.6823L76.9176 18.8301H73.4206Z" fill="white"/>
<path d="M166.991 15.1055V18.8342H163.227V15.1055H166.991Z" fill="white"/>
<path d="M175.732 8.8471C175.252 8.83606 174.781 8.97687 174.388 9.24963C174.011 9.48907 173.691 9.80711 173.449 10.1803C173.19 10.5885 173.008 11.0395 172.912 11.512C172.801 11.9911 172.755 12.4827 172.777 12.9738C172.755 13.4224 172.801 13.8715 172.912 14.307C173.034 14.7294 173.215 15.1328 173.45 15.5055C173.691 15.8798 174.011 16.1981 174.389 16.4361C174.783 16.7082 175.253 16.849 175.733 16.8387C176.416 16.8222 177.076 16.5886 177.615 16.1728C178.019 15.6175 178.294 14.9809 178.422 14.3085H181.786C181.636 15.7363 180.968 17.0612 179.905 18.0372C178.774 18.8678 177.413 19.3342 176.006 19.3704C175.125 19.3875 174.251 19.2046 173.452 18.8362C172.661 18.6031 171.958 18.1403 171.436 17.5075C170.882 16.917 170.428 16.242 170.091 15.5085C169.816 14.6926 169.68 13.8372 169.688 12.9768C169.69 12.0746 169.826 11.1765 170.091 10.3135C170.361 9.53643 170.771 8.81443 171.301 8.18278C171.853 7.55094 172.543 7.05132 173.318 6.72096C174.161 6.33979 175.081 6.15672 176.007 6.18678C176.731 6.21004 177.451 6.30009 178.158 6.45311C178.845 6.62754 179.487 6.94384 180.041 7.38226C180.556 7.80534 181.009 8.29832 181.385 8.8471C181.767 9.49184 181.953 10.2313 181.923 10.9778H178.559C178.38 10.3698 178.009 9.83444 177.5 9.4509C176.991 9.06735 176.372 8.85584 175.732 8.8471Z" fill="white"/>
<path d="M183.528 10.0481C183.765 9.26419 184.233 8.56837 184.872 8.05054C185.431 7.4578 186.122 7.00203 186.889 6.71887C187.751 6.40113 188.659 6.22059 189.578 6.18468C190.503 6.16767 191.42 6.35016 192.267 6.71887C192.999 7.06704 193.678 7.51519 194.284 8.05054C194.838 8.64007 195.292 9.3147 195.629 10.0481C195.904 10.9089 196.04 11.807 196.032 12.7099C196.03 13.6121 195.894 14.5102 195.629 15.3732C195.393 16.1573 194.924 16.8532 194.284 17.3708C193.725 17.9636 193.035 18.4194 192.267 18.7024C191.397 18.9748 190.49 19.1099 189.578 19.1035C188.667 19.1021 187.761 18.9672 186.889 18.7024C186.097 18.4688 185.395 18.005 184.872 17.3708C184.319 16.7811 183.865 16.1065 183.528 15.3732C183.253 14.5124 183.117 13.6128 183.125 12.7099C183.117 11.807 183.253 10.9089 183.528 10.0481ZM186.486 14.0416C186.607 14.5062 186.787 14.9532 187.024 15.3717C187.265 15.745 187.586 16.0631 187.963 16.3024C188.407 16.5723 188.92 16.7108 189.441 16.7019C189.963 16.7139 190.477 16.5752 190.921 16.3024C191.296 16.0615 191.616 15.7437 191.859 15.3717C192.119 14.9643 192.301 14.5137 192.397 14.0416C192.508 13.5614 192.554 13.0689 192.532 12.5767C192.554 12.0851 192.508 11.593 192.397 11.1134C192.277 10.6479 192.096 10.1999 191.859 9.78021C191.617 9.40736 191.297 9.0894 190.921 8.84955C190.477 8.57754 189.963 8.43851 189.441 8.44853C188.919 8.43795 188.406 8.57703 187.963 8.84955C187.587 9.08985 187.267 9.40772 187.024 9.78021C186.765 10.189 186.583 10.6405 186.486 11.1134C186.375 11.593 186.329 12.0851 186.352 12.5767C186.324 13.069 186.369 13.5624 186.486 14.0416Z" fill="white"/>
<path d="M201.139 6.587V8.31818C201.499 7.66718 202.066 7.15247 202.753 6.85334C203.403 6.47449 204.15 6.28927 204.903 6.32067C205.639 6.32269 206.368 6.4579 207.055 6.72017C207.406 6.86049 207.721 7.07765 207.977 7.35423C208.233 7.6308 208.423 7.95939 208.533 8.31818C208.956 7.76475 209.453 7.27201 210.012 6.85334C210.7 6.43244 211.489 6.20227 212.297 6.1875C212.932 6.21124 213.563 6.3009 214.179 6.45232C214.735 6.58576 215.244 6.8599 215.658 7.24981C216.045 7.63802 216.362 8.08968 216.597 8.583C216.859 9.2171 216.996 9.89375 217.001 10.579V18.6992H213.505V10.579C213.478 10.2546 213.386 9.93936 213.236 9.64986C213.083 9.36804 212.849 9.13713 212.564 8.98705C212.178 8.83534 211.769 8.74557 211.354 8.72071C210.94 8.74547 210.531 8.83524 210.145 8.98705C209.859 9.13708 209.625 9.36799 209.472 9.64986C209.338 10.0528 209.204 10.3153 209.069 10.7182C209.069 11.118 208.935 11.5169 208.935 11.9167V18.7053H205.571V10.8514C205.544 10.5269 205.452 10.2116 205.302 9.92225C205.149 9.63967 204.915 9.40784 204.629 9.25641C204.243 9.10562 203.834 9.01682 203.419 8.9931C203.187 8.97295 202.954 9.01804 202.747 9.12324L201.94 9.52274C201.671 9.78927 201.537 10.0583 201.269 10.3217C201 10.5852 200.999 11.2512 200.999 11.7866V18.8475H197.504V6.72925H201.133L201.139 6.587Z" fill="white"/>
<path d="M14.1204 4.75834L12.5072 6.09001L4.84036 0.5L0 3.95933V11.4167L4.84036 7.55183L12.5072 13.2811L14.1204 11.9494V4.75834Z" fill="white"/>
<path d="M19.1577 15.9063L21.04 17.3712V9.91681L19.023 8.32031L12.3003 14.9787L7.46094 10.9822V18.1732L12.0322 21.5039L19.1577 15.9063Z" fill="#FA6633"/>
</svg>
