<svg width="537" height="657" viewBox="0 0 537 657" fill="none" xmlns="http://www.w3.org/2000/svg">
<path fillRule="evenodd" clipRule="evenodd" d="M407.526 159.317H348.969C348.993 159.112 349.006 158.904 349.006 158.692C349.006 156.089 347.14 153.921 344.672 153.453V89.1895L349.446 79.1895H337.899L342.672 89.1895V135.592C339.773 130.12 334.02 126.392 327.396 126.392H62.5C45.3792 126.392 31.5 112.513 31.5 95.392V-56.5H29.5V95.392C29.5 113.617 44.2746 128.392 62.5 128.392H327.396C335.833 128.392 342.672 135.231 342.672 143.668V153.453C340.205 153.921 338.339 156.089 338.339 158.692C338.339 158.904 338.351 159.112 338.375 159.317H279.82C270.831 159.317 263.544 166.604 263.544 175.593V223.169C263.544 232.158 270.831 239.445 279.82 239.445H407.526C416.515 239.445 423.802 232.158 423.802 223.169V175.593C423.802 166.604 416.515 159.317 407.526 159.317ZM421.802 223.169V175.593C421.802 167.708 415.41 161.317 407.526 161.317H348.316C347.4 162.934 345.664 164.026 343.672 164.026C341.681 164.026 339.944 162.934 339.028 161.317H279.82C271.936 161.317 265.544 167.708 265.544 175.593V223.169C265.544 231.054 271.936 237.445 279.82 237.445H407.526C415.41 237.445 421.802 231.054 421.802 223.169Z" fill="black"/>
<path fillRule="evenodd" clipRule="evenodd" d="M365.965 328.332C361.157 323.525 355.203 320.565 348.982 319.452C348.998 319.287 349.006 319.119 349.006 318.95C349.006 316.347 347.14 314.179 344.672 313.711V262.548C347.571 268.02 353.324 271.748 359.948 271.748H528.344C536.781 271.748 543.621 278.587 543.621 287.024V345.76C541.153 346.228 539.287 348.396 539.287 351C539.287 351.546 539.369 352.073 539.522 352.569C518.245 353.806 501.373 371.451 501.373 393.038C501.373 415.426 519.522 433.575 541.911 433.575C564.299 433.575 582.448 415.426 582.448 393.038C582.448 373.236 568.25 356.75 549.478 353.205C549.784 352.533 549.954 351.786 549.954 351C549.954 348.396 548.088 346.228 545.621 345.76V287.024C545.621 277.483 537.886 269.748 528.344 269.748H359.948C351.512 269.748 344.672 262.908 344.672 254.471V249.447L349.446 239.447H337.899L342.672 249.447V313.711C340.205 314.179 338.339 316.347 338.339 318.95C338.339 319.079 338.343 319.206 338.352 319.332C331.874 320.341 325.646 323.341 320.654 328.332L272.928 376.059C268.095 380.892 265.129 386.885 264.029 393.142C263.869 393.127 263.707 393.12 263.543 393.12C260.94 393.12 258.772 394.986 258.304 397.453H10.123V399.453H258.304C258.772 401.921 260.94 403.787 263.543 403.787C263.678 403.787 263.811 403.782 263.943 403.772C264.968 410.214 267.963 416.404 272.928 421.369L321.381 469.822C333.893 482.334 354.179 482.334 366.691 469.822L414.418 422.096C426.93 409.584 426.93 389.298 414.418 376.786L365.965 328.332ZM413.004 378.2L364.55 329.747C359.99 325.186 354.327 322.398 348.419 321.384C347.535 323.106 345.741 324.284 343.672 324.284C341.56 324.284 339.735 323.056 338.871 321.276C332.722 322.19 326.802 325.013 322.069 329.747L274.342 377.473C269.757 382.058 266.964 387.757 265.963 393.699C267.692 394.581 268.877 396.379 268.877 398.453C268.877 400.558 267.657 402.379 265.886 403.246C266.814 409.361 269.633 415.245 274.342 419.955L322.795 468.408C334.526 480.139 353.546 480.139 365.277 468.408L413.004 420.682C424.735 408.951 424.735 389.931 413.004 378.2ZM540.615 354.521C541.592 355.632 543.025 356.333 544.621 356.333C545.972 356.333 547.206 355.831 548.146 355.002C566.465 357.982 580.448 373.877 580.448 393.038C580.448 414.321 563.194 431.575 541.911 431.575C520.627 431.575 503.373 414.321 503.373 393.038C503.373 372.188 519.931 355.205 540.615 354.521Z" fill="black"/>
<path fillRule="evenodd" clipRule="evenodd" d="M343.673 -81.0703C299.419 -81.0703 263.544 -45.1954 263.544 -0.941368C263.544 43.3126 299.419 79.1876 343.673 79.1876C387.927 79.1876 423.802 43.3126 423.802 -0.941368C423.802 -45.1954 387.927 -81.0703 343.673 -81.0703ZM265.544 -0.941368C265.544 42.2081 300.523 77.1876 343.673 77.1876C386.822 77.1876 421.802 42.2081 421.802 -0.941368C421.802 -44.0908 386.822 -79.0703 343.673 -79.0703C300.523 -79.0703 265.544 -44.0908 265.544 -0.941368Z" fill="black"/>
<path d="M603 200.5H424.5V198.5H603V200.5Z" fill="black"/>
<path d="M349.446 479.208L344.672 489.208V623.5C344.672 640.621 358.551 654.5 375.672 654.5H603V656.5H375.672C357.447 656.5 342.672 641.725 342.672 623.5V489.208L337.899 479.208H349.446Z" fill="black"/>
</svg>
