<svg width="1195" height="1062" viewBox="0 0 1195 1062" fill="none" xmlns="http://www.w3.org/2000/svg">
<g id="gridBG">
<path id="gridlines" d="M354 0L354 1062M482 0V1062M610 0V1062M738 0V1062M866 0V1062M994 0V1062M9 307H1195M9 435H1195M9 563H1195M9 691H1195M9 819H1195M9 947H1195M226 0L226 1062M98.0001 0L98 1062M9 179H1195M9 51H1195M1122 0V1062" stroke="white" stroke-opacity="0.24" strokeWidth="0.5"/>
<path id="shapes" d="M737 462V538C737 551.807 725.807 563 712 563H508C494.193 563 483 551.807 483 538V462C483 448.193 494.193 437 508 437H712C725.807 437 737 448.193 737 462ZM644.902 706.697L722.303 784.098C741.899 803.694 741.899 835.467 722.303 855.063L646.063 931.303C626.467 950.899 594.694 950.899 575.098 931.303L497.697 853.902C478.101 834.306 478.101 802.533 497.697 782.937L573.937 706.697C593.533 687.101 625.306 687.101 644.902 706.697ZM610 307C539.86 307 483 250.14 483 180C483 109.86 539.86 53 610 53C680.14 53 737 109.86 737 180C737 250.14 680.14 307 610 307Z" stroke="#6B98FF" strokeWidth="2"/>
<path id="boxes" d="M611 574L615.774 564H604.226L609 574H611ZM1115.67 691C1115.67 693.946 1118.05 696.333 1121 696.333C1123.95 696.333 1126.33 693.946 1126.33 691C1126.33 688.054 1123.95 685.667 1121 685.667C1118.05 685.667 1115.67 688.054 1115.67 691ZM604.667 435C604.667 437.946 607.054 440.333 610 440.333C612.946 440.333 615.333 437.946 615.333 435C615.333 432.054 612.946 429.667 610 429.667C607.054 429.667 604.667 432.054 604.667 435ZM476.667 818C476.667 820.946 479.054 823.333 482 823.333C484.946 823.333 487.333 820.946 487.333 818C487.333 815.054 484.946 812.667 482 812.667C479.054 812.667 476.667 815.054 476.667 818ZM611 318L615.774 308H604.226L609 318H611ZM604.667 691C604.667 693.946 607.054 696.333 610 696.333C612.946 696.333 615.333 693.946 615.333 691C615.333 688.054 612.946 685.667 610 685.667C607.054 685.667 604.667 688.054 604.667 691ZM611 957L615.774 947H604.226L609 957H611ZM604.667 1022C604.667 1024.95 607.054 1027.33 610 1027.33C612.946 1027.33 615.333 1024.95 615.333 1022C615.333 1019.05 612.946 1016.67 610 1016.67C607.054 1016.67 604.667 1019.05 604.667 1022ZM226 62.5L230.774 52.5H219.227L224 62.5H226ZM609 573V615H611V573H609ZM636 642H1095V640H636V642ZM1120 667V691H1122V667H1120ZM1095 642C1108.81 642 1120 653.193 1120 667H1122C1122 652.088 1109.91 640 1095 640V642ZM609 615C609 629.912 621.088 642 636 642V640C622.193 640 611 628.807 611 615H609ZM265 386H584V384H265V386ZM609 411V435H611V411H609ZM584 386C597.807 386 609 397.193 609 411H611C611 396.088 598.912 384 584 384V386ZM0 819H482V817H0V819ZM609 317V411H611V317H609ZM609 615V691H611V615H609ZM609 956V1022H611V956H609ZM226 345V61.5H224V345H226ZM265 384C243.461 384 226 366.539 226 345H224C224 367.644 242.356 386 265 386V384Z" fill="#6B98FF"/>
</g>
</svg>
